<svg width="184" height="184" viewBox="0 0 184 184" fill="none" xmlns="http://www.w3.org/2000/svg">
<g clip-path="url(#clip0)">
<path d="M166.52 64.64H105.8V81.2H166.52V64.64Z" fill="black"/>
<path d="M166.52 108.8H105.8V125.36H166.52V108.8Z" fill="black"/>
<path d="M166.52 152.96H17.48V169.52H166.52V152.96Z" fill="black"/>
<path d="M166.52 20.48H17.48V37.04H166.52V20.48Z" fill="black"/>
<path d="M28.52 128.12H69.92C72.848 128.12 75.6561 126.957 77.7265 124.886C79.7969 122.816 80.96 120.008 80.96 117.08V72.92C80.96 69.992 79.7969 67.1839 77.7265 65.1135C75.6561 63.0431 72.848 61.88 69.92 61.88H28.52C25.592 61.88 22.7839 63.0431 20.7135 65.1135C18.6431 67.1839 17.48 69.992 17.48 72.92V117.08C17.48 120.008 18.6431 122.816 20.7135 124.886C22.7839 126.957 25.592 128.12 28.52 128.12ZM34.04 78.44H64.4V111.56H34.04V78.44Z" fill="black"/>
</g>
<defs>
<clipPath id="clip0">
<rect width="184" height="184" fill="white"/>
</clipPath>
</defs>
</svg>
