<svg width="184" height="184" viewBox="0 0 184 184" fill="none" xmlns="http://www.w3.org/2000/svg">
<g clip-path="url(#clip0)">
<path d="M44.449 87.2944C44.449 87.2944 44.278 87.2944 44.449 87.2944C43.081 86.1016 41.542 85.42 39.832 85.42C36.241 85.42 33.334 88.3168 33.334 91.8952C33.334 93.5992 34.018 95.1328 35.044 96.3256C35.215 96.496 35.215 96.496 35.386 96.6664L53.512 113.706C53.512 113.706 55.906 115.581 55.906 117.966C55.906 119.5 54.538 121.034 54.538 121.034C54.538 121.034 52.486 123.76 50.434 123.419C48.04 122.908 45.475 120.352 45.475 120.352L23.416 101.438V57.6448C23.416 54.0664 20.509 51.1696 16.918 51.1696C13.327 51.1696 10.42 54.0664 10.42 57.6448L7 109.106L53.854 149.15C53.854 149.15 49.921 176.584 50.605 177.947H83.95V126.486L44.449 87.2944Z" fill="black"/>
<path d="M140.551 87.2944C140.551 87.2944 140.722 87.2944 140.551 87.2944C141.919 86.1016 143.458 85.42 145.168 85.42C148.759 85.42 151.666 88.3168 151.666 91.8952C151.666 93.5992 150.982 95.1328 149.956 96.3256C149.785 96.496 149.785 96.496 149.614 96.6664L131.488 113.536C131.488 113.536 129.094 115.41 129.094 117.796C129.094 119.33 130.462 120.863 130.462 120.863C130.462 120.863 132.514 123.59 134.566 123.249C136.96 122.908 139.525 120.352 139.525 120.352L161.413 101.438V57.6448C161.413 54.0664 164.32 51.1696 167.911 51.1696C171.502 51.1696 174.409 54.0664 174.409 57.6448L178 109.276L131.146 149.15C131.146 149.15 135.079 176.584 134.395 177.947H101.05V126.486L140.551 87.2944Z" fill="black"/>
<path d="M92.5 16.9192C70.099 16.9192 51.973 34.9816 51.973 57.304C51.973 79.456 70.099 97.5184 92.5 97.5184C114.901 97.5184 133.027 79.456 133.027 57.1336C133.027 34.9816 114.901 16.9192 92.5 16.9192ZM89.593 51.5104C90.448 52.3624 91.816 53.2144 93.868 54.0664C95.92 54.9184 97.801 55.7704 99.169 56.452C100.537 57.1336 101.734 57.9856 102.589 59.008C103.444 60.0304 104.299 61.0528 104.812 62.2456C105.325 63.4384 105.496 64.8016 105.496 66.5056C105.496 69.5728 104.47 71.9584 102.76 73.8328C100.879 75.7072 98.314 76.7296 95.065 77.0704V82.3528H90.79V77.0704C87.199 76.7296 84.292 75.3664 82.411 73.1512C80.359 70.936 79.504 68.0392 79.504 64.4608H87.199C87.199 66.5056 87.712 68.2096 88.738 69.232C89.764 70.4248 91.132 70.936 93.013 70.936C94.552 70.936 95.749 70.5952 96.775 69.7432C97.63 68.8912 98.143 67.8688 98.143 66.3352C98.143 64.8016 97.801 63.7792 96.946 62.9272C96.091 62.0752 94.723 61.2232 92.842 60.5416C90.961 59.86 89.251 59.1784 87.883 58.3264C86.515 57.4744 85.318 56.7928 84.292 55.9408C83.266 55.0888 82.582 53.896 81.898 52.7032C81.385 51.5104 81.043 49.9768 81.043 48.2728C81.043 45.2056 82.069 42.82 83.95 40.9456C85.831 39.0712 88.396 37.8784 91.645 37.5376V31.9144H95.92V37.708C98.998 38.2192 101.563 39.412 103.273 41.6272C104.983 43.8424 106.009 46.5688 106.009 49.9768H98.314C98.314 47.932 97.801 46.228 96.946 45.2056C96.091 44.1832 94.552 43.672 93.013 43.672C91.474 43.672 90.448 44.0128 89.593 44.8648C88.738 45.7168 88.396 46.7392 88.396 48.2728C88.396 49.636 88.909 50.8288 89.593 51.5104Z" fill="black"/>
</g>
<defs>
<clipPath id="clip0">
<rect width="184" height="184" fill="white"/>
</clipPath>
</defs>
</svg>
