<svg width="184" height="184" viewBox="0 0 184 184" fill="none" xmlns="http://www.w3.org/2000/svg">
<path d="M132.798 153.849L132.086 128.964L125.223 124.663L117.731 128.964L117.019 153.849C116.908 157.714 113.743 160.79 109.876 160.79L124.388 165.395L139.94 160.79C136.073 160.79 132.908 157.714 132.798 153.849V153.849Z" fill="#E4936B"/>
<path d="M153.644 120.608L145.192 103.702C146.319 103.337 147.44 102.94 148.552 102.513C149.799 102.032 150.362 100.582 149.764 99.3856L140.898 81.6546C142.244 81.2509 143.577 80.7951 144.897 80.2869C145.952 79.8808 146.427 78.6541 145.922 77.6431L125.3 36.3991C125.139 36.0761 124.677 36.0761 124.516 36.3991L113.125 59.1797L102.516 73.3522L96.5252 123.483C96.7976 123.802 97.1516 124.06 97.5733 124.223C115.167 130.997 134.649 130.997 152.243 124.223C153.685 123.667 154.336 121.99 153.644 120.608V120.608Z" fill="#4F8980"/>
<path d="M153.644 120.608L145.192 103.702C146.319 103.337 147.44 102.94 148.552 102.513C149.827 102.513 150.656 101.17 150.086 100.03L140.898 81.6549C142.244 81.2512 143.578 80.7954 144.897 80.2872C145.758 79.4268 146.017 77.8323 145.472 76.744L125.3 36.3991C125.139 36.0761 124.678 36.0761 124.516 36.3991L120.2 45.0315L132.917 70.4662C133.461 71.5546 133.203 73.149 132.342 74.0094C132.128 74.092 131.913 74.1733 131.697 74.2532C129.932 74.9076 129.131 76.9527 129.973 78.6364L137.531 93.7526C138.101 94.8933 137.272 96.2352 135.997 96.2352C135.986 96.2394 135.974 96.2437 135.963 96.248C134.207 96.9231 133.399 98.9493 134.241 100.632L141.089 114.33C141.781 115.713 141.131 117.39 139.688 117.945C128.333 122.317 116.191 123.867 104.278 122.596L99.35 121.352L96.5252 123.484C96.7976 123.802 97.1516 124.061 97.5733 124.223C115.167 130.997 134.649 130.997 152.243 124.223C153.685 123.667 154.335 121.99 153.644 120.608V120.608Z" fill="#477D73"/>
<path d="M129.474 109.102C128.249 109.102 127.215 108.153 127.128 106.912C127.038 105.615 128.016 104.49 129.313 104.4C131.877 104.221 134.454 103.883 136.973 103.395C138.249 103.15 139.485 103.982 139.732 105.259C139.979 106.535 139.145 107.77 137.868 108.018C135.163 108.542 132.395 108.905 129.64 109.097C129.584 109.101 129.529 109.102 129.474 109.102Z" fill="#477D73"/>
<path d="M139.732 105.258C139.485 103.982 138.249 103.15 136.973 103.395C136.562 103.475 136.149 103.55 135.735 103.622L137.927 108.006C139.17 107.732 139.975 106.515 139.732 105.258V105.258Z" fill="#3D6E66"/>
<path d="M49.0976 154.541L49.7386 132.135L56.201 125.769L62.6635 132.135L63.3045 154.541C63.4042 158.021 66.2539 160.79 69.7356 160.79L55.9116 165.395L42.6668 160.79C46.1482 160.79 48.9979 158.021 49.0976 154.541V154.541Z" fill="#E4936B"/>
<path d="M81.6482 127.318L81.7445 123.953L81.4036 123.271C73.4576 122.486 65.5915 120.636 58.0222 117.722C56.3232 117.068 55.5575 115.092 56.3717 113.464L66.327 93.553C64.9986 93.1225 63.679 92.6557 62.3697 92.1514C60.9002 91.5856 60.2378 89.8769 60.942 88.4684L68.667 73.0186L56.5542 48.7926C56.4088 48.5016 55.9936 48.5016 55.8482 48.7926L37.2806 85.9282C36.8254 86.8383 37.2534 87.9428 38.2032 88.3084C39.3911 88.7657 40.5922 89.1762 41.8036 89.5396L33.8217 105.504C33.2834 106.581 33.7898 107.887 34.9131 108.319C35.914 108.704 36.9229 109.061 37.9384 109.39L30.3279 124.611C29.7054 125.856 30.291 127.366 31.5896 127.866C47.4303 133.965 64.9712 133.965 80.8119 127.866C81.1385 127.741 81.42 127.551 81.6482 127.318V127.318Z" fill="#4F8980"/>
<path d="M53.7504 62.0194C55.237 64.9922 55.237 68.4915 53.7504 71.4644L48.0074 82.9505C47.3356 84.2938 48.3127 85.8746 49.8145 85.8746C50.6274 86.1875 51.4446 86.4864 52.2651 86.771C53.06 87.0464 53.4317 87.9562 53.0555 88.7088L43.8164 107.187C43.0023 108.815 43.7689 110.791 45.4675 111.445C48.9382 112.781 52.4714 113.893 56.0457 114.782L66.327 93.5536L68.667 73.0195L56.5542 48.7935C56.4088 48.5025 55.9936 48.5025 55.8482 48.7935L51.493 57.5039L53.7504 62.0194Z" fill="#477D73"/>
<path d="M81.7445 119.096L68.976 121.152C68.7706 121.334 68.5296 121.484 68.2569 121.589C56.0713 126.28 42.8798 127.363 30.2298 124.836C29.7779 126.032 30.3684 127.396 31.5899 127.866C47.4306 133.965 64.9715 133.965 80.8122 127.866C81.1385 127.741 81.4197 127.551 81.6482 127.318L84.7277 123.306L81.7445 119.096Z" fill="#477D73"/>
<path d="M48.6378 114.145C48.5379 114.145 48.4364 114.139 48.3343 114.126C47.3322 113.997 46.3179 113.841 45.3191 113.661C44.0395 113.432 43.1882 112.208 43.4176 110.929C43.6473 109.649 44.8722 108.797 46.1503 109.027C47.0729 109.193 48.0098 109.337 48.9352 109.456C50.2246 109.622 51.1353 110.802 50.9696 112.091C50.8169 113.279 49.8041 114.145 48.6378 114.145V114.145Z" fill="#477D73"/>
<path d="M45.4675 111.445C47.1345 112.087 48.816 112.676 50.5098 113.215C50.7511 112.898 50.9153 112.515 50.9699 112.091C51.1359 110.802 50.2249 109.622 48.9355 109.456C48.0101 109.337 47.0729 109.193 46.1506 109.027C45.232 108.861 44.3408 109.255 43.8268 109.965C44.1586 110.618 44.7238 111.158 45.4675 111.445V111.445Z" fill="#3D6E66"/>
<path d="M99.5087 152.615L98.6702 123.306L90.2167 118.444L81.7631 123.306L80.9246 152.615C80.7942 157.167 77.0663 160.79 72.5122 160.79L90.2167 167.279L107.921 160.79C103.367 160.79 99.6391 157.167 99.5087 152.615V152.615Z" fill="#E4936B"/>
<path d="M92.5707 144.877C92.5707 143.577 91.5168 142.523 90.2167 142.523C88.9166 142.523 87.8626 143.577 87.8626 144.877V163.512H92.571V144.877H92.5707Z" fill="#E27D47"/>
<path d="M90.2167 137.815C88.9166 137.815 87.8627 136.761 87.8627 135.461V123.706C87.8627 122.405 88.9166 121.352 90.2167 121.352C91.5168 121.352 92.5707 122.406 92.5707 123.706V135.461C92.5707 136.761 91.5168 137.815 90.2167 137.815Z" fill="#E27D47"/>
<path d="M124.062 113.464L114.106 93.5536C115.434 93.1231 116.754 92.6563 118.064 92.152C119.533 91.5862 120.195 89.8775 119.491 88.469L109.05 67.586C110.634 67.1104 112.206 66.5735 113.76 65.9751C115.002 65.4968 115.562 64.0522 114.966 62.8615L90.6786 14.2855C90.4884 13.9049 89.9452 13.9049 89.7551 14.2855L65.4669 62.8618C64.8715 64.0525 65.4315 65.4971 66.6741 65.9754C68.228 66.5738 69.7992 67.1107 71.3839 67.5863L60.9423 88.4693C60.2382 89.8775 60.9005 91.5862 62.3701 92.1523C63.6793 92.6563 64.9989 93.1234 66.3273 93.5539L56.372 113.465C55.5578 115.093 56.3235 117.068 58.0225 117.723C78.744 125.701 101.69 125.701 122.411 117.723C124.11 117.068 124.876 115.093 124.062 113.464V113.464Z" fill="#80CB8E"/>
<path d="M124.062 113.464L114.106 93.5539C115.434 93.1234 116.754 92.6566 118.064 92.1523C119.533 91.5865 120.195 89.8779 119.491 88.4696L109.05 67.5866C110.634 67.111 112.206 66.5741 113.76 65.9757C115.002 65.4974 115.562 64.0528 114.966 62.8621L90.6786 14.2855C90.4884 13.9049 89.9452 13.9049 89.7551 14.2855L85.5086 22.7784L102.411 56.584C103.007 57.7748 102.447 59.2193 101.205 59.6976C100.954 59.7939 100.704 59.8887 100.453 59.9816C98.3704 60.7543 97.4243 63.1674 98.4179 65.1546L107.316 82.9505C107.988 84.2938 107.01 85.8746 105.509 85.8746L105.469 85.8898C103.4 86.6853 102.452 89.078 103.444 91.0616L111.507 107.187C112.32 108.813 111.558 110.789 109.861 111.443C92.6094 118.086 73.8153 119.199 56.0463 114.782C56.0222 116.035 56.7678 117.239 58.0228 117.722C78.7443 125.7 101.69 125.7 122.411 117.722C124.11 117.068 124.876 115.093 124.062 113.464Z" fill="#66B49D"/>
<path d="M90.2164 99.6818C88.9163 99.6818 87.8624 98.6279 87.8624 97.3278C87.8624 96.0277 88.9163 94.9737 90.2164 94.9737C95.4704 94.9737 100.74 94.4186 105.878 93.3239C107.152 93.053 108.401 93.8638 108.672 95.1355C108.942 96.4073 108.131 97.6577 106.86 97.9286C101.399 99.0919 95.7998 99.6818 90.2164 99.6818V99.6818Z" fill="#66B49D"/>
<path d="M108.672 95.1352C108.401 93.8635 107.152 93.0527 105.879 93.3236C105.485 93.4073 105.091 93.4881 104.696 93.5655L106.875 97.9246C108.138 97.6471 108.942 96.4018 108.672 95.1352Z" fill="#4F8980"/>
<path d="M90.2167 72.7017C86.4166 72.7017 82.5906 72.379 78.8448 71.7422C77.563 71.5247 76.7004 70.309 76.9183 69.0272C77.1361 67.7454 78.3527 66.884 79.6333 67.1009C83.1193 67.6933 86.6798 67.9937 90.2164 67.9937C91.5165 67.9937 92.5707 69.0476 92.5707 70.3477C92.571 71.6478 91.5168 72.7017 90.2167 72.7017Z" fill="#66B49D"/>
<path d="M140.588 160.79H39.8454C36.9698 160.79 34.3836 162.542 33.3163 165.212L31.7867 169.038C31.6027 169.499 31.9418 170 32.4379 170H147.995C148.491 170 148.831 169.499 148.647 169.038L147.117 165.212C146.049 162.541 143.464 160.79 140.588 160.79V160.79Z" fill="#80CB8E"/>
</svg>
