<svg width="184" height="184" viewBox="0 0 184 184" fill="none" xmlns="http://www.w3.org/2000/svg">
<g clip-path="url(#clip0)">
<path d="M45.2608 149.773C44.6467 151.391 44.1981 152.894 43.2227 156.594C41.9535 161.424 41.8432 161.667 39.8941 163.702C37.3647 166.351 35.4476 167.589 31.0136 169.426C28.737 170.368 27.7509 170.918 27.0282 171.618C26.0546 172.559 25.6808 173.467 25.5384 175.178C25.3746 177.246 26.5352 178.932 28.9987 180.201C29.5131 180.462 30.2465 180.769 30.6416 180.87C30.978 180.959 31.2984 180.998 31.5726 180.998C32.1261 180.998 32.5017 180.829 32.5017 180.53C32.5017 180.443 31.9873 179.829 31.3643 179.159C29.7748 177.484 29.3938 176.6 29.8086 175.502C30.1486 174.636 31.6491 173.455 33.4327 172.654C34.2871 172.269 39.312 170.267 40.4405 169.85C41.7737 169.362 42.7527 169.113 43.5662 169.113C44.4865 169.113 45.1985 169.43 45.971 170.083L46.4961 170.519L57.2046 170.496L67.9255 170.464L67.8917 169.64C67.792 167.508 67.2349 167.08 64.3335 166.915C63.5111 166.872 62.8009 166.806 62.7777 166.774C62.6798 166.685 63.107 165.68 63.8173 164.277C65.0864 161.79 66.8272 159.426 67.824 158.844C68.1605 158.65 68.3118 158.584 68.714 158.584C68.8475 158.584 69.0095 158.595 69.2142 158.606C70.2448 158.659 70.8233 158.901 71.3502 159.505C71.7881 160.005 71.9074 160.423 72.0836 162.1C72.1939 163.115 72.3132 163.697 72.566 164.334C73.8048 167.538 77.4823 171.078 79.5703 171.078C79.5863 171.078 79.6023 171.078 79.6165 171.078C80.3285 171.068 80.6454 170.845 81.0405 170.081C81.3912 169.391 81.4357 168.615 81.1616 168.075C81.0619 167.881 80.4941 167.223 79.9138 166.609C77.3186 163.916 76.5193 161.78 76.5193 157.531C76.5193 153.218 77.3631 150.051 79.2143 147.445C79.4759 147.071 80.3641 146.043 81.1847 145.147C83.8013 142.289 84.3157 141.183 84.3157 138.435C84.3051 136.845 84.1965 136.005 83.7355 134.296C82.9576 131.352 83.2193 129.928 84.8622 128.088C85.98 126.829 86.0779 126.391 85.6828 124.298C85.2449 122.009 85.0811 121.003 84.8497 119.001C84.5543 116.48 84.3353 115.921 83.5575 115.594C83.3367 115.496 83.1125 115.45 82.8828 115.45C82.6105 115.45 82.3328 115.517 82.048 115.647C81.7846 115.768 81.0939 116.381 80.3285 117.167C78.8725 118.68 78.1712 119.195 77.2296 119.435C76.8237 119.537 76.4357 119.594 76.0352 119.594C74.9423 119.594 73.7425 119.184 71.765 118.198C70.2003 117.42 69.8052 117.256 69.3548 117.256C69.305 117.256 69.2587 117.256 69.216 117.256C68.8458 117.256 68.7639 117.313 68.5663 117.605C68.2477 118.066 68.1391 118.921 68.237 120.19C68.3242 121.578 68.6072 122.741 69.5061 125.469C70.3819 128.143 70.6133 129.081 70.6347 130.11C70.656 131.14 70.4264 131.82 69.9013 132.354C69.2997 132.947 68.7728 133.113 66.0565 133.561C61.8735 134.261 59.1679 135.062 56.5958 136.343C51.5014 138.901 47.6584 143.444 45.2608 149.773Z" fill="black"/>
<path d="M106.283 106.03L103.689 97.0303C103.54 96.5194 103.639 95.9694 103.949 95.5422C104.259 95.1132 104.748 94.8498 105.281 94.8302L121.71 94.2179L134.576 62.6567H147.128C150.234 62.6567 152.773 60.154 152.773 57.0088C152.773 54.9974 151.676 53.2174 150.087 52.2295L130.824 41.9161C130.252 41.6135 129.576 41.4605 128.967 41.4231L120.775 41.4605C119.982 40.4743 119.255 39.2995 118.728 38.1621C118.123 36.8734 118.387 35.3177 119.449 34.2194C120.136 33.5359 121.041 33.2333 121.948 33.2333H136.171C138.066 33.2333 139.622 31.6794 139.622 29.7463C139.622 27.8506 138.065 26.2949 136.171 26.2949H121.797C120.055 26.2949 118.463 26.7132 117.059 27.5106C118.198 17.6512 126.616 9.99362 136.776 9.99362C138.711 9.99362 140.263 8.36314 140.263 6.46744C140.263 4.53436 138.711 2.97864 136.776 2.97864C121.915 2.97864 109.857 15.0364 109.853 29.8638C109.853 34.0717 110.841 38.0535 112.543 41.6189L105.685 41.5815C104.887 41.5815 104.243 42.2259 104.243 43.0607C104.243 43.479 104.432 43.8581 104.734 44.1233L114.136 53.4861L102.799 70.9266H31.407C25.7591 70.9266 21.0581 75.5902 20.7929 81.2007V109.756C20.7929 110.209 21.172 110.549 21.5885 110.549C21.9285 110.549 22.2311 110.357 22.3468 110.051L27.6174 101.827V114.642L20.832 125.411L20.8694 153.736C20.8694 157.753 24.1286 160.973 28.1122 160.973C32.1297 160.973 35.3907 157.751 35.3907 153.736V126.998L43.6178 115.966V128.552L49.8282 139.206C51.5958 137.408 53.5912 135.929 55.8357 134.804C57.9005 133.778 60.0508 133.041 62.8454 132.427L56.699 121.726L63.2601 111.756H92.4183V154.257C92.4183 158.237 95.6419 161.498 99.6576 161.498C103.68 161.498 106.938 158.241 106.938 154.257V114.752L111.58 110.108C109.141 108.253 107.112 107.066 107.078 107.041C106.692 106.819 106.409 106.455 106.283 106.03Z" fill="black"/>
<path d="M118.762 114.515L107.358 169.469C104.407 170.56 103.636 173.556 103.636 173.556H107.691C107.691 169.318 114.134 167.527 114.222 167.527C114.229 167.527 114.239 167.527 114.25 167.527L120.962 147.152L123.673 156.327C128.465 149.82 137.468 147.888 137.468 147.888L138.693 150.092C130.831 152.465 126.94 156.251 125.015 159.448C124.547 160.227 124.14 161.105 123.807 162.011C123.771 162.104 123.736 162.258 123.709 162.347C123.688 162.397 123.673 162.573 123.659 162.627C123.097 164.375 123.127 165.802 123.127 165.802H122.984C122.894 165.802 122.84 166.99 122.84 167.755C122.84 167.755 110.273 168.707 110.273 173.554H131.358H147.383H157.456C157.456 173.554 160.329 172.164 161.787 170.363C165.436 165.868 164.062 157.958 164.062 157.958C160.607 162.812 157.152 164.966 155.288 165.85L145.074 134.279L126.115 88.9206L124.857 95.8234L105.345 96.5497L107.94 105.551C107.94 105.551 114.743 109.492 118.762 114.515Z" fill="black"/>
<path d="M43.7816 23.6231C43.5947 23.591 43.39 23.575 43.1746 23.575C42.1066 23.575 40.7057 23.9844 39.3173 24.5327C38.3686 20.0613 30.6932 10.2642 30.6932 9.23533C44.4722 8.07833 52.8596 26.7345 53.4238 27.6868C53.4185 27.863 53.3491 28.025 53.2476 28.1763C52.2846 28.6534 51.238 28.7922 50.6506 28.8278C49.4544 27.4554 46.2202 23.9844 43.7816 23.6231Z" fill="black"/>
<path d="M43.6107 24.7035C46.0742 25.056 50.154 29.9314 50.154 29.9314C50.154 29.9314 50.1949 29.9332 50.2715 29.9332C50.9372 29.9332 54.2017 29.8086 55.7343 27.4216C55.8357 26.1631 52.6673 23.3507 58.8973 22.5462C61.5851 21.9428 74.6931 15.5543 76.8041 12.2863C85.4532 32.1991 66.6475 35.0649 66.6475 35.0649C66.6475 35.0649 66.295 36.3714 65.5901 37.1279C65.3552 37.3807 64.8123 37.4626 64.1928 37.4626C63.0109 37.4626 61.5531 37.1582 61.4267 37.1297C61.6403 37.2116 65.0864 38.4896 66.6955 38.6356C66.8166 38.6463 66.9928 38.6516 67.2153 38.6516C70.0811 38.6516 80.7255 37.831 80.7255 37.831C78.1641 46.3234 72.4271 48.5609 67.0996 48.5609C61.1722 48.5609 55.7521 45.7965 55.7521 45.7965L60.4121 44.5701C60.4121 44.5701 54.3299 44.3334 52.3647 43.7157C42.8417 40.7093 41.7559 33.2564 41.7559 33.2564C41.7559 33.2564 41.5815 29.7783 34.5149 28.1763C35.2287 27.637 40.615 24.6697 43.1746 24.6697C43.3312 24.6697 43.4772 24.6804 43.6107 24.7035Z" fill="black"/>
</g>
<defs>
<clipPath id="clip0">
<rect width="178" height="178" fill="white" transform="translate(3 3)"/>
</clipPath>
</defs>
</svg>
