<svg width="184" height="184" viewBox="0 0 184 184" fill="none" xmlns="http://www.w3.org/2000/svg">
<g clip-path="url(#clip0)">
<path d="M152.868 73.209C149.664 70.8896 147.358 67.2518 147.762 63.6845C149.188 51.0928 141.471 40.3384 128.996 38.3761C126.781 38.0272 124.575 37.0763 122.578 36.0067C118.814 33.9896 114.892 33.2468 110.836 34.3779C108.646 34.9892 107.299 34.7164 105.558 33.1406C95.6283 24.1503 80.0664 27.3634 75.2015 39.5654C73.8049 43.07 71.7396 45.1155 68.5015 46.4487C67.7786 46.7466 66.9852 47.0828 66.4716 47.6329C64.8552 49.3639 63.315 48.9368 61.3568 48.1039C48.7157 42.7195 35.1023 51.5794 34.5754 65.2804C34.5006 67.2373 33.6891 69.3619 32.6394 71.0492C28.8816 77.0952 28.2172 83.1606 30.7397 89.4451C28.9232 93.9827 30.5074 99.6403 34.9818 102.922C39.8913 106.525 45.5529 104.645 49.8917 101.158C51.1198 101.041 52.3696 100.792 53.6454 100.402C56.196 99.6196 58.4988 98.6853 60.6495 99.7268C60.99 99.9798 61.3399 100.205 61.695 100.412C61.79 100.491 61.8847 100.565 61.9794 100.654C61.9919 100.634 62.0024 100.618 62.0149 100.599C62.723 100.981 63.4574 101.27 64.2094 101.491C68.3818 116.237 77.3509 129.152 89.6675 138.306C88.9168 147.325 86.516 156.168 82.0427 164.833C77.0496 167.885 70.9582 165.677 65.7298 164.23C61.1077 162.95 56.6073 162.478 51.9926 163.95C51.0376 164.256 50.5929 165.011 50.546 165.793C50.5398 165.815 50.5304 165.833 50.525 165.855C50.175 167.359 49.8251 168.863 49.4751 170.366C49.1481 171.773 50.1615 172.737 51.2602 172.926C51.432 172.97 51.6142 173 51.8164 173H137.219C137.968 173 138.5 172.671 138.831 172.204C139.323 171.82 139.649 171.231 139.649 170.569V167.445C139.649 166.52 139.016 165.728 138.168 165.464C137.844 165.191 137.416 165.015 136.871 165.015H111.066C109.784 163.534 108.479 162.038 107.131 160.558C103.382 156.441 101.728 151.859 103.413 146.315C103.999 144.389 104.42 142.386 104.664 140.388C105.383 134.466 106.056 128.516 106.739 122.479C115.4 121.654 123.231 117.961 129.312 111.696C131.834 111.689 134.099 110.941 135.987 109.672L136.744 109.436C140.859 112.757 147.207 113.1 152.002 111.329C156.445 109.688 160.287 105.244 160.421 100.359C160.434 99.9014 160.411 99.4485 160.371 98.9995C163.83 90.0917 160.667 78.8563 152.868 73.209ZM77.54 100.044C77.589 100.026 77.6296 100.011 77.6784 99.9923C78.5731 99.6517 80.1323 100.042 80.9374 100.668C82.0725 101.551 83.1462 102.514 84.1961 103.493C84.217 103.576 84.2181 103.653 84.2441 103.738C85.8469 109.095 87.45 114.452 89.0526 119.808C89.435 122.508 89.6785 125.19 89.8107 127.858C81.5176 121.039 76.9807 110.914 77.54 100.044ZM108.653 115.526C109.028 114.628 109.404 113.731 109.794 112.837C109.925 112.837 110.056 112.837 110.186 112.836C110.186 112.527 110.193 112.216 110.204 111.905C111.273 109.507 112.442 107.161 113.754 104.92C115.426 106.394 117.167 107.717 119.022 108.797C115.916 111.542 112.434 113.796 108.653 115.526Z" fill="black"/>
</g>
<g clip-path="url(#clip1)">
<path d="M58.3037 127C49.107 127 38 133.604 38 141.804C38 141.852 38.0133 141.989 38.0195 142.037C38.0347 142.502 38.3553 142.902 38.8066 143.017C39.2548 143.132 39.7316 142.935 39.9664 142.533C42.7158 137.843 46.7485 134.235 52.2975 131.504C52.811 131.247 53.4461 131.476 53.6951 131.98C53.8186 132.231 53.837 132.515 53.7472 132.78C53.6573 133.044 53.4705 133.257 53.2203 133.38C46.9845 136.451 42.7948 140.677 40.4056 146.291C40.3668 146.348 40.3177 146.396 40.29 146.462C38.7912 150.076 38.0204 154.365 38 159.211C37.6311 158.239 37.1956 157.315 36.727 156.414C37.5579 155.139 38 153.752 38 152.258C38 144.058 26.893 137.454 17.6963 137.454C16.2099 137.455 15 138.664 15 140.151C15 149.348 21.6035 160.455 29.8048 160.455C31.8224 160.455 33.6508 159.665 35.2573 158.153C37.0894 162.016 38 166.553 38 171.955C38 172.532 38.4676 173 39.0454 173C39.6233 173 40.0909 172.532 40.0909 171.955V159.409C40.0909 155.318 40.6782 151.695 41.7742 148.554C43.1226 149.508 44.6027 150 46.1962 150C54.3965 150 61 138.893 61 129.696C61 128.21 59.7902 127 58.3037 127Z" fill="black"/>
</g>
<defs>
<clipPath id="clip0">
<rect width="145" height="145" fill="white" transform="translate(23 28)"/>
</clipPath>
<clipPath id="clip1">
<rect width="46" height="46" fill="white" transform="translate(15 127)"/>
</clipPath>
</defs>
</svg>
