<svg width="184" height="184" viewBox="0 0 184 184" fill="none" xmlns="http://www.w3.org/2000/svg">
<path d="M151.958 69.6842L151.697 69.3311L151.646 69.2277L127.956 34.0607L104.266 69.2281L104.217 69.3267L103.953 69.6845C100.152 74.8327 98.1431 80.9488 98.1431 87.3725C98.1431 103.812 111.517 117.185 127.956 117.185C144.394 117.185 157.768 103.811 157.768 87.3725C157.769 80.9485 155.759 74.8316 151.958 69.6842Z" fill="black"/>
<path d="M127.956 127.343C105.916 127.343 87.9861 109.412 87.9861 87.3725C87.9861 78.8049 90.6551 70.6411 95.7056 63.7556L111.279 40.6374L87.2711 5L37.2514 79.2526C29.387 89.955 25.2312 102.644 25.2312 115.96C25.2312 150.169 53.0623 178 87.2715 178C119.685 178 146.368 153.013 149.08 121.289C142.947 125.123 135.707 127.343 127.956 127.343Z" fill="black"/>
<path d="M48.6465 128.831C47.8881 125.415 47.8605 121.962 48.5639 118.568C49.375 114.654 46.8282 110.847 42.8768 110.065C38.9251 109.285 35.0641 111.821 34.253 115.734C33.1357 121.125 33.1773 126.597 34.3765 131.999C37.2171 144.794 46.2905 155.259 58.6465 159.991C60.044 160.526 61.508 160.605 62.8722 160.302C65.1739 159.791 67.189 158.191 68.1137 155.855C69.5862 152.131 67.7358 147.948 63.9802 146.51C56.1726 143.52 50.4403 136.911 48.6465 128.831Z" fill="white"/>
</svg>
