<svg width="184" height="184" viewBox="0 0 184 184" fill="none" xmlns="http://www.w3.org/2000/svg">
<g clip-path="url(#clip0)">
<path d="M77.7943 47.8317L74.4905 51.1259C70.1312 55.4727 67.6814 61.3754 67.6814 67.5315V76.2462V93.8065C67.6814 96.4176 69.7983 98.5345 72.4094 98.5345C74.9094 98.5345 76.9507 96.5931 77.1207 94.1364V98.6254C77.1207 101.015 78.8438 103.125 81.2135 103.434C83.9944 103.796 86.376 101.739 86.5604 99.0769V103.102C86.5604 105.483 88.4902 107.714 90.8626 107.922C93.6656 108.167 96.0165 105.964 96.0165 103.212V99.0769C96.2008 101.739 98.5822 103.796 101.363 103.434C103.733 103.125 105.456 101.015 105.456 98.6254V74.4362C105.456 73.6133 106.632 73.4713 106.828 74.2704L108.08 79.3738C108.688 81.8573 111.094 83.5349 113.615 83.1046C116.295 82.6468 118.068 80.0709 117.543 77.4063L115.067 64.8517C114.176 60.3322 111.958 56.1812 108.696 52.9285L103.584 47.8317V30.1139H77.7943V47.8317Z" fill="#FCC69D"/>
<path d="M40.2401 159.484L44.7449 160.697C50.6889 162.299 57.0258 161.47 62.3572 158.391L69.9044 154.034L85.112 145.254C87.3735 143.948 88.1483 141.056 86.8425 138.795C85.5925 136.63 82.8905 135.833 80.678 136.914L84.5654 134.669C86.6351 133.474 87.6006 130.927 86.6829 128.721C85.6062 126.131 82.6341 125.097 80.2366 126.269L83.7221 124.256C85.7846 123.066 86.7519 120.279 85.7455 118.121C84.5565 115.57 81.4732 114.636 79.09 116.012L75.5086 118.079C77.7217 116.589 78.3125 113.498 76.6083 111.271C75.156 109.373 72.4674 108.935 70.398 110.13L49.4497 122.225C48.737 122.636 48.0258 121.689 48.6198 121.119L52.414 117.484C54.2605 115.715 54.5106 112.793 52.8775 110.825C51.1407 108.733 48.0234 108.485 45.9785 110.272L36.3437 118.694C32.8755 121.725 30.3896 125.722 29.2035 130.173L27.3451 137.148L17.9895 142.55L30.8844 164.885L40.2401 159.484Z" fill="#FCC69D"/>
<path d="M155.656 137.149L154.455 132.64C152.87 126.692 148.983 121.619 143.652 118.541L136.104 114.183L120.897 105.403C118.635 104.098 115.744 104.872 114.438 107.134C113.188 109.299 113.849 112.037 115.891 113.413L112.004 111.168C109.934 109.974 107.245 110.411 105.793 112.309C104.089 114.536 104.68 117.627 106.893 119.117L103.407 117.105C101.345 115.914 98.448 116.47 97.0821 118.421C95.4681 120.726 96.2003 123.863 98.5837 125.239L102.165 127.307C99.7677 126.136 96.7955 127.17 95.7188 129.759C94.8014 131.966 95.767 134.513 97.8363 135.708L118.785 147.802C119.497 148.214 119.032 149.304 118.242 149.074L113.197 147.606C110.742 146.891 108.086 148.136 107.199 150.534C106.255 153.084 107.599 155.908 110.17 156.785L122.28 160.918C126.64 162.406 131.344 162.561 135.792 161.362L142.761 159.484L152.117 164.885L165.012 142.551L155.656 137.149Z" fill="#FCC69D"/>
<path d="M77.7931 33.1022C78.582 33.1022 79.35 32.7825 79.9088 32.2266C80.4646 31.6708 80.7814 30.8999 80.7814 30.1139C80.7814 29.328 80.4646 28.5571 79.9088 28.0012C79.35 27.4454 78.582 27.1257 77.7931 27.1257C77.0072 27.1257 76.2362 27.4454 75.6804 28.0012C75.1246 28.5571 74.8048 29.328 74.8048 30.1139C74.8048 30.8999 75.1246 31.6708 75.6804 32.2266C76.2362 32.7825 77.0072 33.1022 77.7931 33.1022Z" fill="black"/>
<path d="M98.4361 106.116C99.1604 106.342 99.9302 106.464 100.728 106.464C104.983 106.464 108.444 103.002 108.444 98.7473V84.8271C110.07 85.9196 112.101 86.4058 114.16 86.0433C116.246 85.6754 118.055 84.51 119.253 82.7622C120.451 81.0143 120.884 78.9073 120.475 76.8287L117.999 64.274C116.989 59.1533 114.502 54.4985 110.806 50.8131L106.573 46.5916V30.1139C106.573 28.4635 105.235 27.1257 103.584 27.1257C101.934 27.1257 100.596 28.4635 100.596 30.1139V47.8317C100.596 48.6257 100.912 49.3871 101.474 49.9477L106.586 55.0448C109.437 57.8884 111.356 61.4794 112.135 65.4299L114.611 77.9845C114.707 78.4746 114.605 78.9716 114.323 79.3836C114.041 79.7957 113.614 80.0706 113.122 80.1573C112.17 80.327 111.241 79.7207 111.011 78.7803L109.731 73.5628C109.28 71.7244 107.59 70.5539 105.71 70.7819C103.831 71.009 102.468 72.5477 102.468 74.4404V98.7473C102.468 99.7066 101.687 100.487 100.728 100.487C99.8459 100.487 99.1171 99.8273 99.0047 98.9759V86.2833C99.0047 84.6328 97.6669 83.295 96.0165 83.295C96.0135 83.295 96.0108 83.2953 96.0081 83.2953C96.0054 83.2953 96.0024 83.295 95.9997 83.295C94.3493 83.295 93.0115 84.6328 93.0115 86.2833V98.7473C93.0115 98.9102 93.0183 99.0715 93.0282 99.2317V103.213C93.0282 104.172 92.2477 104.952 91.2884 104.952C90.3292 104.952 89.5487 104.172 89.5487 103.213V99.2299C89.5585 99.0701 89.5654 98.9096 89.5654 98.7473V86.2833C89.5654 84.6328 88.2275 83.295 86.5771 83.295C86.5744 83.295 86.5714 83.2953 86.5687 83.2953C86.5661 83.2953 86.5631 83.295 86.5604 83.295C84.91 83.295 83.5721 84.6328 83.5721 86.2833V98.975C83.4601 99.827 82.7309 100.487 81.8488 100.487C80.8895 100.487 80.109 99.7069 80.109 98.7476V94.2897C80.1189 94.1298 80.1257 93.9694 80.1257 93.8071V86.2833C80.1257 84.6328 78.7879 83.295 77.1375 83.295C77.1348 83.295 77.1318 83.2953 77.1291 83.2953C77.1264 83.2953 77.1234 83.295 77.1207 83.295C75.4703 83.295 74.1325 84.6328 74.1325 86.2833V94.0345C74.0204 94.8865 73.2913 95.5469 72.4091 95.5469C71.4499 95.5469 70.6694 94.7664 70.6694 93.8071V83.3389V76.2468V67.5319C70.6694 62.1309 72.7755 57.0559 76.6002 53.2423L79.904 49.948C80.4661 49.3874 80.7823 48.626 80.7823 47.832V40.7704C80.7823 39.12 79.4444 37.7821 77.794 37.7821C76.1436 37.7821 74.8057 39.12 74.8057 40.7704V46.5916L72.3801 49.01C67.4229 53.9532 64.6928 60.5309 64.6928 67.5316V76.2465V83.3386V93.8068C64.6928 98.0615 68.1544 101.523 72.4091 101.523C73.1487 101.523 73.8635 101.416 74.5413 101.221C75.5749 104.266 78.4589 106.463 81.8485 106.463C82.6463 106.463 83.4161 106.342 84.1405 106.116C85.2901 108.936 88.0599 110.929 91.2878 110.929C94.5158 110.929 97.2865 108.936 98.4361 106.116Z" fill="black"/>
<path d="M88.9893 126.656C88.5912 125.967 88.102 125.362 87.5456 124.848C88.1711 124.045 88.636 123.117 88.9074 122.104C89.4408 120.113 89.1671 118.034 88.1364 116.248C86.5227 113.453 83.4126 112.051 80.3965 112.465C80.2268 111.717 79.9441 110.99 79.5493 110.307C78.519 108.522 76.8548 107.245 74.864 106.711C72.8729 106.178 70.7937 106.451 69.0085 107.482L56.9532 114.442C57.0862 112.488 56.4927 110.486 55.1486 108.885C53.7865 107.261 51.8732 106.278 49.7608 106.114C47.6495 105.953 45.6065 106.629 44.011 108.023L34.3762 116.445C30.4464 119.88 27.6589 124.361 26.3151 129.405L24.7761 135.181L16.4947 139.963C15.0654 140.788 14.5757 142.615 15.401 144.045C15.9545 145.003 16.9588 145.539 17.9916 145.539C18.4984 145.539 19.0124 145.41 19.483 145.138L28.8387 139.737C29.5263 139.34 30.0277 138.686 30.2321 137.918L32.0905 130.943C33.1271 127.052 35.2778 123.594 38.3097 120.944L47.9445 112.523C48.3207 112.194 48.8012 112.034 49.3003 112.073C49.7984 112.111 50.2493 112.343 50.5706 112.726C51.193 113.468 51.1327 114.573 50.4337 115.243L46.5549 118.96C45.1881 120.269 45.0208 122.318 46.1569 123.832C47.2933 125.346 49.3077 125.759 50.9468 124.812L71.9971 112.658C72.3993 112.426 72.8681 112.364 73.3173 112.484C73.7661 112.605 74.1414 112.893 74.3739 113.295C74.6061 113.698 74.668 114.166 74.5479 114.615C74.4427 115.008 74.203 115.338 73.8761 115.572L62.9342 121.889C61.505 122.714 61.0152 124.542 61.8405 125.971C61.842 125.974 61.8435 125.976 61.845 125.978C61.8465 125.981 61.8474 125.983 61.8489 125.986C62.674 127.415 64.5013 127.904 65.9309 127.079L76.7254 120.847C76.8659 120.766 77.0021 120.68 77.1363 120.591L80.5842 118.6C81.4149 118.121 82.4811 118.406 82.961 119.237C83.4406 120.068 83.155 121.134 82.3242 121.614L78.8749 123.606C78.7317 123.677 78.5892 123.751 78.4487 123.832L67.6542 130.064C66.2249 130.889 65.7351 132.717 66.5605 134.146C66.6726 134.34 66.8094 134.522 66.9612 134.686C67.5344 135.31 68.3358 135.655 69.1594 135.655C69.6662 135.655 70.1802 135.526 70.6508 135.255L81.642 128.909C82.4357 128.58 83.3722 128.881 83.8136 129.645C84.2932 130.476 84.0075 131.542 83.1768 132.022L79.3177 134.25C79.1737 134.321 79.0306 134.396 78.8898 134.477L72.3739 138.239C70.9446 139.064 70.4548 140.892 71.2802 142.321C71.8121 143.238 72.817 143.83 73.8791 143.83C74.3859 143.83 74.8999 143.701 75.3705 143.43L82.0843 139.554C82.4363 139.407 82.8239 139.379 83.1983 139.48C83.6471 139.6 84.0222 139.888 84.2546 140.29C84.7343 141.121 84.4486 142.187 83.6178 142.667L74.0407 148.196L60.8628 155.805C56.1852 158.505 50.737 159.218 45.5222 157.813L41.0174 156.599C40.2503 156.392 39.4333 156.5 38.7457 156.897L29.39 162.298C27.9607 163.123 27.4709 164.951 28.2963 166.38C28.8497 167.339 29.8541 167.875 30.8868 167.875C31.3936 167.875 31.9076 167.746 32.3783 167.474L40.6597 162.693L43.9668 163.584C50.726 165.405 57.7878 164.481 63.8507 160.981L71.3976 156.624C71.3976 156.624 71.3979 156.624 71.3979 156.623L77.0287 153.372L77.54 153.077L86.6058 147.843C90.2907 145.715 91.5574 140.987 89.43 137.302C89.064 136.668 88.6166 136.099 88.1044 135.604C90.2231 133.186 90.6836 129.591 88.9893 126.656Z" fill="black"/>
<path d="M166.505 139.962L158.224 135.181L157.342 131.871C155.54 125.106 151.208 119.453 145.146 115.953L131.968 108.344L122.391 102.815C120.605 101.784 118.526 101.511 116.535 102.044C114.545 102.577 112.88 103.854 111.85 105.639C111.481 106.279 111.216 106.95 111.047 107.633C109.898 107.403 108.702 107.436 107.537 107.749C105.546 108.282 103.882 109.559 102.852 111.344C102.457 112.027 102.175 112.754 102.005 113.502C98.9889 113.089 95.8787 114.491 94.265 117.286C92.6514 120.081 92.992 123.475 94.8582 125.881C94.2952 126.402 93.8069 127.01 93.4125 127.693C91.2851 131.378 92.5522 136.107 96.2367 138.234L108.292 145.194C106.533 146.056 105.096 147.571 104.381 149.536C103.656 151.527 103.761 153.676 104.676 155.587C105.591 157.499 107.199 158.928 109.204 159.612L121.314 163.745C126.254 165.432 131.529 165.605 136.568 164.247L142.341 162.691L150.622 167.472C151.093 167.744 151.606 167.873 152.113 167.873C153.146 167.873 154.151 167.337 154.704 166.379C155.529 164.949 155.04 163.122 153.61 162.297L144.255 156.895C143.567 156.498 142.75 156.391 141.983 156.598L135.013 158.476C131.125 159.524 127.056 159.39 123.244 158.089L111.134 153.956C110.661 153.795 110.282 153.457 110.066 153.007C109.85 152.556 109.826 152.049 109.997 151.58C110.328 150.67 111.316 150.17 112.245 150.44L117.403 151.941C119.221 152.471 121.079 151.591 121.822 149.849C122.565 148.108 121.915 146.158 120.275 145.212L99.225 133.058C98.3942 132.579 98.1086 131.512 98.5882 130.681C98.8207 130.279 99.1957 129.991 99.6445 129.871C100.019 129.77 100.407 129.798 100.758 129.945L111.751 136.291C112.222 136.563 112.735 136.692 113.242 136.692C114.065 136.692 114.866 136.347 115.439 135.724C115.592 135.56 115.729 135.377 115.842 135.183C116.667 133.753 116.177 131.926 114.748 131.101L103.954 124.869C103.813 124.787 103.669 124.712 103.525 124.64L100.078 122.65C99.2471 122.171 98.9614 121.105 99.441 120.274C99.6735 119.871 100.049 119.583 100.498 119.463C100.947 119.343 101.415 119.405 101.818 119.637L105.265 121.627C105.399 121.716 105.536 121.803 105.676 121.884L116.471 128.116C116.941 128.388 117.455 128.517 117.962 128.517C118.785 128.517 119.586 128.172 120.159 127.548C120.312 127.384 120.448 127.202 120.561 127.008C121.387 125.578 120.897 123.751 119.468 122.926L108.525 116.608C108.199 116.375 107.959 116.044 107.854 115.651C107.734 115.203 107.795 114.734 108.028 114.331C108.26 113.929 108.635 113.641 109.084 113.52C109.533 113.4 110.002 113.462 110.405 113.694L114.265 115.923C114.399 116.012 114.534 116.098 114.675 116.179L121.191 119.941C121.662 120.213 122.175 120.342 122.682 120.342C123.505 120.342 124.306 119.997 124.879 119.374C125.032 119.209 125.168 119.027 125.281 118.833C126.107 117.403 125.617 115.576 124.187 114.751L117.475 110.875C116.793 110.352 116.586 109.39 117.026 108.627C117.259 108.224 117.634 107.936 118.083 107.816C118.532 107.696 119 107.757 119.403 107.99L128.469 113.224L128.98 113.519L134.611 116.77C134.611 116.77 134.611 116.77 134.611 116.77L142.158 121.128C146.836 123.828 150.177 128.19 151.568 133.409L152.769 137.917C152.973 138.684 153.475 139.338 154.162 139.735L163.518 145.137C163.989 145.409 164.502 145.538 165.009 145.538C166.042 145.538 167.046 145.002 167.6 144.043C168.424 142.615 167.935 140.787 166.505 139.962Z" fill="black"/>
</g>
<defs>
<clipPath id="clip0">
<rect width="153" height="153" fill="white" transform="translate(15 21)"/>
</clipPath>
</defs>
</svg>
